<svg version="1" xmlns="http://www.w3.org/2000/svg" width="853.333" height="853.333" viewBox="0 0 640.000000 640.000000"><path d="M262.8 135.3c-3.7 2.4-7.1 4.6-7.5 5.1-1.5 1.4 3 3.6 7.4 3.6 4.3 0 4.4.1 6.7 5.2 1.3 2.9 3.8 6.3 5.5 7.6 1.7 1.2 3.1 2 3.1 1.6 0-.8-3.8-15.7-5.6-22.2-.9-2.8-1.8-5.2-2.2-5.2-.4 0-3.7 2-7.4 4.3zM228.9 160.3l-20.5 18.2-44.2 82.4-44.2 82.3 1.7 18.9c.9 10.4 2.1 18.9 2.5 18.9.5 0 3-1.6 5.5-3.5 2.6-2 5.3-3.3 6.1-3 .9.3 3.9-1.4 7.3-4 3.1-2.5 6-4.5 6.2-4.5.9 0 2.5 9.6 3.8 21.7.6 6.2 1.4 11.3 1.6 11.3.3 0 3.1-2 6.3-4.5 6.4-5 7-5.2 7-3s.7 1.9 6.2-2.6c2.7-2.3 5.1-3.9 5.3-3.7.3.3 1.4 7.1 2.5 15.3 1.1 8.2 2.1 15 2.3 15.1.1.2 3.1-2 6.7-4.8 6.1-4.7 6.5-4.9 7-2.8.3 1.1.8 2.2 1.2 2.3.3.1 3.5-2.3 7-5.4 9.1-8 9.2-8 8.4-3-.8 5.3-1.5 5.7 16.3-9.9 7.8-6.9 15-12.8 15.9-13.2.9-.4 3-1.2 4.6-1.8 3-1.1 2.9-1.1-8-7.4-6-3.4-19.2-11.3-29.4-17.5-43.2-26.5-39.8-24.6-43.3-23.2-5.5 2.2-10.6 3.4-12.2 2.7-2.3-.8-2-9.9.4-13.4 2.4-3.4 91.3-175.3 90.9-175.7-.2-.2-9.6 7.9-20.9 17.8zM287.7 155.5l-7.9 5.3 4.5 3c4.2 3 4.5 3 6.7 1.5 1.3-.9 2.5-1.3 2.7-.7 1.9 4.8 5.4 10.2 7.9 12.1l3.1 2.3-4.1-14.5c-2.2-8-4.3-14.5-4.6-14.4-.3 0-4 2.4-8.3 5.4z"/><path d="M216.4 233.7c-21.9 43.3-40 79.2-40.1 79.8-.2.5 15.4 10.6 34.5 22.3 28.2 17.3 33.9 20.5 30.5 17l-4.1-4.3 17.4-38.5c9.6-21.2 24-53 32-70.6l14.6-32.2 7.6-2.7c4.2-1.5 8-3 8.5-3.4.6-.6-57.4-44.6-60.3-45.9-.4-.1-18.6 35.2-40.6 78.5zm60.9-43.4c9.7 7.1 17.7 13.2 17.7 13.5 0 1.1-4.4 9.2-5 9.2-.3 0-8.3-5.6-17.9-12.5-13.2-9.5-17.7-12.2-19-11.5-3.2 1.7-5.6 4.7-8.1 9.9-2 4.4-2.2 5.4-1 6.2 1.2.7.9 1.3-1.5 3.3-3.4 2.7-4.5 2.5-4.4-.7 0-3.2 13.4-29.3 14.3-27.9 1.1 1.9 2.6 1.4 3.8-1.3.6-1.3 1.6-2.2 2.2-1.8.6.3 9.1 6.5 18.9 13.6zm-34.2 39.3c4.3 3 7.9 5.7 7.9 5.9 0 .2-3.5-1.2-7.7-3.1-5-2.3-8.5-3.3-10-2.9-2.4.6-2.4.5-.8-2.5.8-1.6 1.8-3 2.1-3 .3 0 4.2 2.5 8.5 5.6zm-12.7 35.1c5.8 5.3 10.6 9.9 10.6 10.3 0 .4-1.1 1.2-2.5 1.8-2.4 1.1-2.5 1-2.5-2.3 0-2.7-.7-3.9-3.3-5.9-1.9-1.4-4.8-3.1-6.6-3.7-2.9-1-3.9-.8-9.1 2l-6 3.1 3.7-7.5c2.1-4.1 4-7.5 4.4-7.5.4 0 5.5 4.3 11.3 9.7zm-12.8 46c9.3 5.9 18 11.6 19.3 12.5l2.5 1.7-4 9.3c-2.7 6.2-4.6 9.3-5.6 9.2-1.1-.1-42.9-25.1-46.6-28-.2-.1.4-1.6 1.3-3.4 1.4-2.6 2.1-3.1 4.1-2.6 2.1.6 2.7 0 5.4-5.4 2.6-5.2 3.3-5.9 4.9-5.1 1 .6 9.4 5.9 18.7 11.8zM313.5 174.1c-3.8 2.8-7.1 5.4-7.3 5.9-.2.5 1.8 2.1 4.3 3.5 4.3 2.5 4.7 2.6 6.4 1.1 1.6-1.5 1.9-1.5 3.3.1.8 1 2.7 3.9 4.2 6.5 2.8 4.8 6.5 8.8 5.4 5.8-.3-.8-2.3-7.5-4.4-14.7-2.2-7.3-4.1-13.3-4.4-13.2-.3 0-3.6 2.3-7.5 5zM278.6 319.9c-1.4 2.8-2.6 5.6-2.6 6.3.1 1 113.3 74.9 147.8 96.5l6.7 4.1 16.5 1.1c9.1.7 18.2 1.4 20.3 1.7 2.1.2 3.6.1 3.3-.4-.2-.4-5-3.7-10.6-7.1l-10.1-6.4-2.8 2.7-2.8 2.7-80.2-52.6c-44.2-28.9-80.9-52.9-81.6-53.1-.9-.4-2.3 1.2-3.9 4.5z"/></svg>